<svg width="200" height="200" viewBox="0 0 200 200" fill="none" xmlns="http://www.w3.org/2000/svg">
<g clip-path="url(#clip0_1701_39)">
<rect y="-1" width="200" height="200" fill="black"/>
<path fill-rule="evenodd" clip-rule="evenodd" d="M117.829 -5.58994C119.311 -5.0787 120.597 -4.11742 121.507 -2.84021C122.417 -1.56301 122.906 -0.0335952 122.905 1.53462V84.3784H168.092C169.505 84.3786 170.89 84.7764 172.088 85.5263C173.285 86.2761 174.248 87.3478 174.865 88.6188C175.483 89.8898 175.73 91.3089 175.579 92.7139C175.428 94.1188 174.885 95.453 174.012 96.5639L91.1682 202.001C90.2002 203.232 88.8727 204.131 87.3704 204.572C85.8681 205.013 84.2656 204.975 82.7859 204.463C81.3063 203.951 80.0229 202.99 79.1145 201.715C78.2061 200.44 77.7178 198.913 77.7174 197.347V114.503H32.5299C31.1169 114.503 29.7324 114.105 28.5347 113.355C27.337 112.606 26.3745 111.534 25.757 110.263C25.1396 108.992 24.8922 107.573 25.0431 106.168C25.194 104.763 25.7371 103.429 26.6104 102.318L109.454 -3.11969C110.42 -4.35043 111.746 -5.24962 113.247 -5.69231C114.748 -6.13501 116.349 -6.09923 117.829 -5.58994Z" fill="white"/>
<path d="M45.786 89.504L89.5035 45.7865C90.2377 45.048 91.1637 44.5296 92.1771 44.2897C93.1904 44.0499 94.2506 44.0983 95.2379 44.4293C96.2252 44.7603 97.1003 45.3609 97.7642 46.1631C98.4282 46.9653 98.8545 47.9372 98.9952 48.969L103.071 77.6673L114.238 88.834L116.08 87.7731C117.282 87.1886 118.654 87.0548 119.947 87.396C121.239 87.7372 122.366 88.5308 123.123 89.6325C123.88 90.7342 124.217 92.0709 124.072 93.3998C123.927 94.7286 123.31 95.9613 122.333 96.874L128.754 103.406L130.597 102.346C131.796 101.795 133.151 101.687 134.423 102.04C135.694 102.394 136.799 103.186 137.542 104.277C138.284 105.368 138.617 106.686 138.48 107.998C138.343 109.311 137.746 110.532 136.794 111.446L143.327 117.923L145.113 116.751C145.751 116.381 146.455 116.142 147.185 116.046C147.915 115.95 148.657 116 149.368 116.192C150.079 116.384 150.745 116.714 151.328 117.165C151.91 117.615 152.398 118.177 152.763 118.816C153.393 119.966 153.599 121.301 153.344 122.588C153.088 123.874 152.389 125.029 151.367 125.851L154.214 128.699C154.736 129.22 155.136 129.849 155.387 130.541C155.673 131.213 155.825 131.934 155.833 132.663V150.251C155.833 151.731 155.245 153.152 154.198 154.199C153.151 155.246 151.731 155.834 150.25 155.834H132.774C132.045 155.825 131.324 155.673 130.653 155.387C129.96 155.136 129.331 154.736 128.81 154.215L119.318 144.667L117.476 145.728C116.842 146.1 116.141 146.342 115.413 146.442C114.685 146.542 113.945 146.498 113.234 146.311C112.524 146.124 111.857 145.799 111.272 145.354C110.687 144.909 110.196 144.353 109.827 143.718C109.175 142.569 108.952 141.225 109.197 139.927C109.443 138.629 110.141 137.46 111.167 136.627L104.634 130.151L102.792 131.211C101.957 131.684 101.015 131.934 100.056 131.937C98.9872 131.841 97.9689 131.439 97.1228 130.779C96.2768 130.119 95.6388 129.229 95.2854 128.216C94.9319 127.202 94.878 126.109 95.1299 125.066C95.3818 124.023 95.929 123.074 96.706 122.334L90.1735 115.857L88.331 116.918C87.4965 117.391 86.5543 117.641 85.5952 117.644C84.455 117.624 83.3484 117.255 82.4241 116.587C81.4999 115.919 80.8024 114.984 80.4254 113.907C80.0484 112.831 80.01 111.665 80.3154 110.566C80.6208 109.468 81.2552 108.489 82.1335 107.761L77.7227 103.351L48.9685 99.2748C47.9352 99.1279 46.9637 98.6943 46.1643 98.0233C45.3649 97.3522 44.7696 96.4704 44.446 95.4781C44.0632 94.46 43.986 93.3523 44.2241 92.291C44.4621 91.2297 45.005 90.261 45.786 89.504ZM135.063 144.667H144.667V135.064L141.484 131.881L129.313 139.084L135.063 144.667ZM121.161 130.709L133.5 123.73L127.135 117.365L115.019 124.344L121.161 130.709ZM106.589 116.192L118.76 109.157L112.339 102.792L100 109.771L106.589 116.192ZM92.016 101.62L104.188 94.4173L97.8227 88.0523L88.2193 97.6556L92.016 101.62ZM78.3368 91.9048L91.9043 78.3373L89.5035 61.5873L61.5868 89.504L78.3368 91.9048Z" fill="black"/>
</g>
<rect x="0.5" y="0.5" width="199" height="199" rx="49.5" stroke="black"/>
<defs>
<clipPath id="clip0_1701_39">
<rect width="200" height="200" rx="50" fill="white"/>
</clipPath>
</defs>
</svg>
